<svg id="elements_what_i_do" width="1468" height="75" viewBox="0 0 1468 75" fill="none" xmlns="http://www.w3.org/2000/svg">
<rect width="1468" height="75" rx="20" fill="#121212"/>
<path d="M32.6484 35.334L30.2402 44H27.7354L24.3779 31.3174H27.1289L29.124 40.502H29.1943L31.5674 31.3174H33.8086L36.1816 40.502H36.252L38.2559 31.3174H41.0068L37.6406 44H35.1357L32.7275 35.334H32.6484ZM53.4609 44H50.8066V38.6562H45.0938V44H42.4395V31.3174H45.0938V36.4678H50.8066V31.3174H53.4609V44ZM63.876 44L62.9092 40.9238H58.4531L57.4863 44H54.7617L59.165 31.3174H62.2852L66.6973 44H63.876ZM60.6504 33.7432L59.0244 38.9375H62.3379L60.7119 33.7432H60.6504ZM71.9619 44H69.3076V33.5059H65.6426V31.3174H75.6357V33.5059H71.9619V44ZM83.3262 44H80.6719V31.3174H83.3262V44ZM92.5723 31.3174H97.415C101.221 31.3174 103.462 33.585 103.462 37.6104C103.462 41.6357 101.221 44 97.415 44H92.5723V31.3174ZM95.2266 33.5059V41.8027H97.0986C99.4717 41.8027 100.755 40.3613 100.755 37.6191C100.755 34.9648 99.4365 33.5059 97.0986 33.5059H95.2266ZM110.897 31.0977C114.65 31.0977 117.015 33.6201 117.015 37.6631C117.015 41.6973 114.65 44.2197 110.897 44.2197C107.136 44.2197 104.78 41.6973 104.78 37.6631C104.78 33.6201 107.136 31.0977 110.897 31.0977ZM110.897 33.3125C108.823 33.3125 107.487 35 107.487 37.6631C107.487 40.3174 108.814 41.9961 110.897 41.9961C112.972 41.9961 114.299 40.3174 114.299 37.6631C114.299 35 112.972 33.3125 110.897 33.3125Z" fill="white"/>
<circle cx="181.5" cy="37.5" r="8" fill="#CCFB62"/>
<path d="M253.648 35.334L251.24 44H248.735L245.378 31.3174H248.129L250.124 40.502H250.194L252.567 31.3174H254.809L257.182 40.502H257.252L259.256 31.3174H262.007L258.641 44H256.136L253.728 35.334H253.648ZM274.461 44H271.807V38.6562H266.094V44H263.439V31.3174H266.094V36.4678H271.807V31.3174H274.461V44ZM284.876 44L283.909 40.9238H279.453L278.486 44H275.762L280.165 31.3174H283.285L287.697 44H284.876ZM281.65 33.7432L280.024 38.9375H283.338L281.712 33.7432H281.65ZM292.962 44H290.308V33.5059H286.643V31.3174H296.636V33.5059H292.962V44ZM304.326 44H301.672V31.3174H304.326V44ZM313.572 31.3174H318.415C322.221 31.3174 324.462 33.585 324.462 37.6104C324.462 41.6357 322.221 44 318.415 44H313.572V31.3174ZM316.227 33.5059V41.8027H318.099C320.472 41.8027 321.755 40.3613 321.755 37.6191C321.755 34.9648 320.437 33.5059 318.099 33.5059H316.227ZM331.897 31.0977C335.65 31.0977 338.015 33.6201 338.015 37.6631C338.015 41.6973 335.65 44.2197 331.897 44.2197C328.136 44.2197 325.78 41.6973 325.78 37.6631C325.78 33.6201 328.136 31.0977 331.897 31.0977ZM331.897 33.3125C329.823 33.3125 328.487 35 328.487 37.6631C328.487 40.3174 329.814 41.9961 331.897 41.9961C333.972 41.9961 335.299 40.3174 335.299 37.6631C335.299 35 333.972 33.3125 331.897 33.3125Z" fill="white"/>
<circle cx="402.5" cy="37.5" r="8" fill="#CCFB62"/>
<path d="M474.648 35.334L472.24 44H469.735L466.378 31.3174H469.129L471.124 40.502H471.194L473.567 31.3174H475.809L478.182 40.502H478.252L480.256 31.3174H483.007L479.641 44H477.136L474.728 35.334H474.648ZM495.461 44H492.807V38.6562H487.094V44H484.439V31.3174H487.094V36.4678H492.807V31.3174H495.461V44ZM505.876 44L504.909 40.9238H500.453L499.486 44H496.762L501.165 31.3174H504.285L508.697 44H505.876ZM502.65 33.7432L501.024 38.9375H504.338L502.712 33.7432H502.65ZM513.962 44H511.308V33.5059H507.643V31.3174H517.636V33.5059H513.962V44ZM525.326 44H522.672V31.3174H525.326V44ZM534.572 31.3174H539.415C543.221 31.3174 545.462 33.585 545.462 37.6104C545.462 41.6357 543.221 44 539.415 44H534.572V31.3174ZM537.227 33.5059V41.8027H539.099C541.472 41.8027 542.755 40.3613 542.755 37.6191C542.755 34.9648 541.437 33.5059 539.099 33.5059H537.227ZM552.897 31.0977C556.65 31.0977 559.015 33.6201 559.015 37.6631C559.015 41.6973 556.65 44.2197 552.897 44.2197C549.136 44.2197 546.78 41.6973 546.78 37.6631C546.78 33.6201 549.136 31.0977 552.897 31.0977ZM552.897 33.3125C550.823 33.3125 549.487 35 549.487 37.6631C549.487 40.3174 550.814 41.9961 552.897 41.9961C554.972 41.9961 556.299 40.3174 556.299 37.6631C556.299 35 554.972 33.3125 552.897 33.3125Z" fill="white"/>
<circle cx="623.5" cy="37.5" r="8" fill="#CCFB62"/>
<path d="M695.648 35.334L693.24 44H690.735L687.378 31.3174H690.129L692.124 40.502H692.194L694.567 31.3174H696.809L699.182 40.502H699.252L701.256 31.3174H704.007L700.641 44H698.136L695.728 35.334H695.648ZM716.461 44H713.807V38.6562H708.094V44H705.439V31.3174H708.094V36.4678H713.807V31.3174H716.461V44ZM726.876 44L725.909 40.9238H721.453L720.486 44H717.762L722.165 31.3174H725.285L729.697 44H726.876ZM723.65 33.7432L722.024 38.9375H725.338L723.712 33.7432H723.65ZM734.962 44H732.308V33.5059H728.643V31.3174H738.636V33.5059H734.962V44ZM746.326 44H743.672V31.3174H746.326V44ZM755.572 31.3174H760.415C764.221 31.3174 766.462 33.585 766.462 37.6104C766.462 41.6357 764.221 44 760.415 44H755.572V31.3174ZM758.227 33.5059V41.8027H760.099C762.472 41.8027 763.755 40.3613 763.755 37.6191C763.755 34.9648 762.437 33.5059 760.099 33.5059H758.227ZM773.897 31.0977C777.65 31.0977 780.015 33.6201 780.015 37.6631C780.015 41.6973 777.65 44.2197 773.897 44.2197C770.136 44.2197 767.78 41.6973 767.78 37.6631C767.78 33.6201 770.136 31.0977 773.897 31.0977ZM773.897 33.3125C771.823 33.3125 770.487 35 770.487 37.6631C770.487 40.3174 771.814 41.9961 773.897 41.9961C775.972 41.9961 777.299 40.3174 777.299 37.6631C777.299 35 775.972 33.3125 773.897 33.3125Z" fill="white"/>
<circle cx="844.5" cy="37.5" r="8" fill="#CCFB62"/>
<path d="M916.648 35.334L914.24 44H911.735L908.378 31.3174H911.129L913.124 40.502H913.194L915.567 31.3174H917.809L920.182 40.502H920.252L922.256 31.3174H925.007L921.641 44H919.136L916.728 35.334H916.648ZM937.461 44H934.807V38.6562H929.094V44H926.439V31.3174H929.094V36.4678H934.807V31.3174H937.461V44ZM947.876 44L946.909 40.9238H942.453L941.486 44H938.762L943.165 31.3174H946.285L950.697 44H947.876ZM944.65 33.7432L943.024 38.9375H946.338L944.712 33.7432H944.65ZM955.962 44H953.308V33.5059H949.643V31.3174H959.636V33.5059H955.962V44ZM967.326 44H964.672V31.3174H967.326V44ZM976.572 31.3174H981.415C985.221 31.3174 987.462 33.585 987.462 37.6104C987.462 41.6357 985.221 44 981.415 44H976.572V31.3174ZM979.227 33.5059V41.8027H981.099C983.472 41.8027 984.755 40.3613 984.755 37.6191C984.755 34.9648 983.437 33.5059 981.099 33.5059H979.227ZM994.897 31.0977C998.65 31.0977 1001.01 33.6201 1001.01 37.6631C1001.01 41.6973 998.65 44.2197 994.897 44.2197C991.136 44.2197 988.78 41.6973 988.78 37.6631C988.78 33.6201 991.136 31.0977 994.897 31.0977ZM994.897 33.3125C992.823 33.3125 991.487 35 991.487 37.6631C991.487 40.3174 992.814 41.9961 994.897 41.9961C996.972 41.9961 998.299 40.3174 998.299 37.6631C998.299 35 996.972 33.3125 994.897 33.3125Z" fill="white"/>
<circle cx="1065.5" cy="37.5" r="8" fill="#CCFB62"/>
<path d="M1137.65 35.334L1135.24 44H1132.74L1129.38 31.3174H1132.13L1134.12 40.502H1134.19L1136.57 31.3174H1138.81L1141.18 40.502H1141.25L1143.26 31.3174H1146.01L1142.64 44H1140.14L1137.73 35.334H1137.65ZM1158.46 44H1155.81V38.6562H1150.09V44H1147.44V31.3174H1150.09V36.4678H1155.81V31.3174H1158.46V44ZM1168.88 44L1167.91 40.9238H1163.45L1162.49 44H1159.76L1164.17 31.3174H1167.29L1171.7 44H1168.88ZM1165.65 33.7432L1164.02 38.9375H1167.34L1165.71 33.7432H1165.65ZM1176.96 44H1174.31V33.5059H1170.64V31.3174H1180.64V33.5059H1176.96V44ZM1188.33 44H1185.67V31.3174H1188.33V44ZM1197.57 31.3174H1202.42C1206.22 31.3174 1208.46 33.585 1208.46 37.6104C1208.46 41.6357 1206.22 44 1202.42 44H1197.57V31.3174ZM1200.23 33.5059V41.8027H1202.1C1204.47 41.8027 1205.75 40.3613 1205.75 37.6191C1205.75 34.9648 1204.44 33.5059 1202.1 33.5059H1200.23ZM1215.9 31.0977C1219.65 31.0977 1222.01 33.6201 1222.01 37.6631C1222.01 41.6973 1219.65 44.2197 1215.9 44.2197C1212.14 44.2197 1209.78 41.6973 1209.78 37.6631C1209.78 33.6201 1212.14 31.0977 1215.9 31.0977ZM1215.9 33.3125C1213.82 33.3125 1212.49 35 1212.49 37.6631C1212.49 40.3174 1213.81 41.9961 1215.9 41.9961C1217.97 41.9961 1219.3 40.3174 1219.3 37.6631C1219.3 35 1217.97 33.3125 1215.9 33.3125Z" fill="white"/>
<circle cx="1286.5" cy="37.5" r="8" fill="#CCFB62"/>
<path d="M1358.65 35.334L1356.24 44H1353.74L1350.38 31.3174H1353.13L1355.12 40.502H1355.19L1357.57 31.3174H1359.81L1362.18 40.502H1362.25L1364.26 31.3174H1367.01L1363.64 44H1361.14L1358.73 35.334H1358.65ZM1379.46 44H1376.81V38.6562H1371.09V44H1368.44V31.3174H1371.09V36.4678H1376.81V31.3174H1379.46V44ZM1389.88 44L1388.91 40.9238H1384.45L1383.49 44H1380.76L1385.17 31.3174H1388.29L1392.7 44H1389.88ZM1386.65 33.7432L1385.02 38.9375H1388.34L1386.71 33.7432H1386.65ZM1397.96 44H1395.31V33.5059H1391.64V31.3174H1401.64V33.5059H1397.96V44ZM1409.33 44H1406.67V31.3174H1409.33V44ZM1418.57 31.3174H1423.42C1427.22 31.3174 1429.46 33.585 1429.46 37.6104C1429.46 41.6357 1427.22 44 1423.42 44H1418.57V31.3174ZM1421.23 33.5059V41.8027H1423.1C1425.47 41.8027 1426.75 40.3613 1426.75 37.6191C1426.75 34.9648 1425.44 33.5059 1423.1 33.5059H1421.23ZM1436.9 31.0977C1440.65 31.0977 1443.01 33.6201 1443.01 37.6631C1443.01 41.6973 1440.65 44.2197 1436.9 44.2197C1433.14 44.2197 1430.78 41.6973 1430.78 37.6631C1430.78 33.6201 1433.14 31.0977 1436.9 31.0977ZM1436.9 33.3125C1434.82 33.3125 1433.49 35 1433.49 37.6631C1433.49 40.3174 1434.81 41.9961 1436.9 41.9961C1438.97 41.9961 1440.3 40.3174 1440.3 37.6631C1440.3 35 1438.97 33.3125 1436.9 33.3125Z" fill="white"/>
</svg>
