<svg id= "download" width="36" height="36" viewBox="0 0 36 36" fill="none" xmlns="http://www.w3.org/2000/svg">
<path d="M6.1875 31.5C5.14321 31.5 4.14169 31.0852 3.40327 30.3467C2.66484 29.6083 2.25 28.6068 2.25 27.5625V21.9375C2.25 21.4899 2.42779 21.0607 2.74426 20.7443C3.06072 20.4278 3.48995 20.25 3.9375 20.25C4.38505 20.25 4.81428 20.4278 5.13074 20.7443C5.44721 21.0607 5.625 21.4899 5.625 21.9375V27.5625C5.625 27.873 5.877 28.125 6.1875 28.125H29.8125C29.9617 28.125 30.1048 28.0657 30.2102 27.9602C30.3157 27.8548 30.375 27.7117 30.375 27.5625V21.9375C30.375 21.4899 30.5528 21.0607 30.8693 20.7443C31.1857 20.4278 31.6149 20.25 32.0625 20.25C32.5101 20.25 32.9393 20.4278 33.2557 20.7443C33.5722 21.0607 33.75 21.4899 33.75 21.9375V27.5625C33.75 28.6068 33.3352 29.6083 32.5967 30.3467C31.8583 31.0852 30.8568 31.5 29.8125 31.5H6.1875Z" fill="#747474"/>
<path d="M16.3124 17.3003V4.5C16.3124 4.05245 16.4902 3.62322 16.8067 3.30676C17.1232 2.99029 17.5524 2.8125 17.9999 2.8125C18.4475 2.8125 18.8767 2.99029 19.1932 3.30676C19.5096 3.62322 19.6874 4.05245 19.6874 4.5V17.3003L24.1199 12.87C24.2765 12.7134 24.4624 12.5892 24.6671 12.5044C24.8717 12.4197 25.091 12.3761 25.3124 12.3761C25.5339 12.3761 25.7532 12.4197 25.9578 12.5044C26.1624 12.5892 26.3483 12.7134 26.5049 12.87C26.6615 13.0266 26.7858 13.2125 26.8705 13.4171C26.9553 13.6217 26.9989 13.841 26.9989 14.0625C26.9989 14.284 26.9553 14.5033 26.8705 14.7079C26.7858 14.9125 26.6615 15.0984 26.5049 15.255L19.1924 22.5675C19.0359 22.7242 18.85 22.8486 18.6454 22.9334C18.4408 23.0183 18.2214 23.0619 17.9999 23.0619C17.7784 23.0619 17.5591 23.0183 17.3545 22.9334C17.1498 22.8486 16.9639 22.7242 16.8074 22.5675L9.49493 15.255C9.33832 15.0984 9.2141 14.9125 9.12935 14.7079C9.0446 14.5033 9.00098 14.284 9.00098 14.0625C9.00098 13.841 9.0446 13.6217 9.12935 13.4171C9.2141 13.2125 9.33832 13.0266 9.49493 12.87C9.65153 12.7134 9.83744 12.5892 10.0421 12.5044C10.2467 12.4197 10.466 12.3761 10.6874 12.3761C10.9089 12.3761 11.1282 12.4197 11.3328 12.5044C11.5374 12.5892 11.7233 12.7134 11.8799 12.87L16.3124 17.3003Z" fill="#747474"/>
</svg>
